<svg xmlns="http://www.w3.org/2000/svg" viewBox="0 0 48 48">
  <defs>
    <linearGradient id="g" x1="0" y1="0" x2="1" y2="1">
      <stop offset="0" stop-color="#4f46e5"/>
      <stop offset="1" stop-color="#7c3aed"/>
    </linearGradient>
  </defs>
  <rect width="48" height="48" rx="11" fill="url(#g)"/>
  <g fill="none" stroke="#fff" stroke-width="2">
    <circle cx="24" cy="26" r="11"/>
  </g>
  <g fill="none" stroke="#fff" stroke-width="1.3" opacity="0.9">
    <ellipse cx="24" cy="26" rx="4.5" ry="11"/>
    <line x1="13" y1="26" x2="35" y2="26"/>
    <path d="M15.5 20 H32.5" stroke-width="1" opacity="0.7"/>
    <path d="M15.5 32 H32.5" stroke-width="1" opacity="0.7"/>
  </g>
  <g fill="#fff">
    <path d="M38 6 l5 1.6 -4.2 2.6 -0.6 -1.6 z"/>
    <path d="M10 6 l-5 1.6 4.2 2.6 0.6 -1.6 z"/>
    <path d="M39 42 l3.5 -3.8 0.4 4.9 -1.7 -0.4 z"/>
  </g>
  <g fill="none" stroke="#fff" stroke-width="1.3" stroke-dasharray="2 2" stroke-linecap="round">
    <path d="M30 13 q5.5 -5.5 11 -6"/>
    <path d="M18 13 q-5.5 -5.5 -11 -6"/>
    <path d="M33 39 q6 3 9 -1"/>
  </g>
</svg>
